<svg xmlns="http://www.w3.org/2000/svg" xmlns:xlink="http://www.w3.org/1999/xlink" version="1.1" data-diagram-type="CLASS" style="width:1092px;height:597px;background:#FFFFFF;" width="1092px" height="597px" viewBox="0 0 1092 597" zoomAndPan="magnify" preserveAspectRatio="none" contentStyleType="text/css"><?plantuml 1.2026.7beta3?><defs/><g><g class="title" data-source-line="1"><text x="391.0999" y="22.9951" fill="#000000" font-size="14" lengthAdjust="spacing" textLength="303.3721" font-weight="700" font-family="sans-serif">School Application - Database Schema</text></g><!--class groups--><g class="entity" data-qualified-name="groups" id="ent0001" data-source-line="8"><rect x="7" y="44.2969" width="302.9648" height="74.8906" fill="#F1F1F1" style="stroke:#181818;stroke-width:0.5;" rx="2.5" ry="2.5"/><text x="134.3516" y="62.292" fill="#000000" font-size="14" lengthAdjust="spacing" textLength="48.2617" font-family="sans-serif">groups</text><line x1="8" y1="70.5938" x2="308.9648" y2="70.5938" style="stroke:#181818;stroke-width:0.5;"/><text x="13" y="87.5889" fill="#000000" font-size="14" lengthAdjust="spacing" textLength="168.3008" font-family="sans-serif">*group_id : BIGINT «PK»</text><line x1="8" y1="94.8906" x2="308.9648" y2="94.8906" style="stroke:#181818;stroke-width:1;"/><text x="13" y="111.8857" fill="#000000" font-size="14" lengthAdjust="spacing" textLength="290.9648" font-family="sans-serif">*group_name : VARCHAR(255) «UNIQUE»</text></g><!--class students--><g class="entity" data-qualified-name="students" id="ent0002" data-source-line="14"><rect x="52.08" y="179.1869" width="212.8125" height="107.4844" fill="#F1F1F1" style="stroke:#181818;stroke-width:0.5;" rx="2.5" ry="2.5"/><text x="128.08" y="197.182" fill="#000000" font-size="14" lengthAdjust="spacing" textLength="60.8125" font-family="sans-serif">students</text><line x1="53.08" y1="205.4837" x2="263.8925" y2="205.4837" style="stroke:#181818;stroke-width:0.5;"/><text x="58.08" y="222.4789" fill="#000000" font-size="14" lengthAdjust="spacing" textLength="180.8516" font-family="sans-serif">*student_id : BIGINT «PK»</text><line x1="53.08" y1="229.7806" x2="263.8925" y2="229.7806" style="stroke:#181818;stroke-width:1;"/><text x="58.08" y="246.7757" fill="#000000" font-size="14" lengthAdjust="spacing" textLength="167.9111" font-family="sans-serif">*group_id : BIGINT «FK»</text><text x="58.08" y="263.0726" fill="#000000" font-size="14" lengthAdjust="spacing" textLength="200.8125" font-family="sans-serif">*first_name : VARCHAR(255)</text><text x="58.08" y="279.3695" fill="#000000" font-size="14" lengthAdjust="spacing" textLength="198.707" font-family="sans-serif">*last_name : VARCHAR(255)</text></g><!--class courses--><g class="entity" data-qualified-name="courses" id="ent0003" data-source-line="22"><rect x="546.08" y="187.3369" width="308.7959" height="91.1875" fill="#F1F1F1" style="stroke:#181818;stroke-width:0.5;" rx="2.5" ry="2.5"/><text x="673.4316" y="205.332" fill="#000000" font-size="14" lengthAdjust="spacing" textLength="54.0928" font-family="sans-serif">courses</text><line x1="547.08" y1="213.6337" x2="853.8759" y2="213.6337" style="stroke:#181818;stroke-width:0.5;"/><text x="552.08" y="230.6289" fill="#000000" font-size="14" lengthAdjust="spacing" textLength="174.1318" font-family="sans-serif">*course_id : BIGINT «PK»</text><line x1="547.08" y1="237.9306" x2="853.8759" y2="237.9306" style="stroke:#181818;stroke-width:1;"/><text x="552.08" y="254.9257" fill="#000000" font-size="14" lengthAdjust="spacing" textLength="296.7959" font-family="sans-serif">*course_name : VARCHAR(255) «UNIQUE»</text><text x="552.08" y="271.2226" fill="#000000" font-size="14" lengthAdjust="spacing" textLength="180.7969" font-family="sans-serif">course_description : TEXT</text></g><!--class students_courses--><g class="entity" data-qualified-name="students_courses" id="ent0004" data-source-line="29"><rect x="319.99" y="346.6669" width="218.9854" height="74.8906" fill="#F1F1F1" style="stroke:#181818;stroke-width:0.5;" rx="2.5" ry="2.5"/><text x="368.53" y="364.662" fill="#000000" font-size="14" lengthAdjust="spacing" textLength="121.9053" font-family="sans-serif">students_courses</text><line x1="320.99" y1="372.9637" x2="537.9754" y2="372.9637" style="stroke:#181818;stroke-width:0.5;"/><text x="325.99" y="389.9589" fill="#000000" font-size="14" lengthAdjust="spacing" textLength="206.9854" font-family="sans-serif">*student_id : BIGINT «PK, FK»</text><text x="325.99" y="406.2557" fill="#000000" font-size="14" lengthAdjust="spacing" textLength="200.2656" font-family="sans-serif">*course_id : BIGINT «PK, FK»</text><line x1="320.99" y1="413.5575" x2="537.9754" y2="413.5575" style="stroke:#181818;stroke-width:0.5;"/></g><g class="entity" data-qualified-name="GMN8" id="ent0009" data-source-line="39"><path d="M345.4,46.4769 L345.4,78.3569 L310.18,82.3569 L345.4,86.3569 L345.4,117.0081 A0,0 0 0 0 345.4,117.0081 L549.5553,117.0081 A0,0 0 0 0 549.5553,117.0081 L549.5553,56.4769 L539.5553,46.4769 L345.4,46.4769 A0,0 0 0 0 345.4,46.4769" style="stroke:#181818;stroke-width:0.5;" fill="#FEFFDD"/><path d="M539.5553,46.4769 L539.5553,56.4769 L549.5553,56.4769 L539.5553,46.4769" style="stroke:#181818;stroke-width:0.5;" fill="#FEFFDD"/><text x="351.4" y="63.5438" fill="#000000" font-size="13" lengthAdjust="spacing" textLength="70.2939" font-family="sans-serif">Seed data:</text><text x="351.4" y="78.6766" fill="#000000" font-size="13" lengthAdjust="spacing" textLength="145.5898" font-family="sans-serif">- 10 generated groups</text><text x="351.4" y="93.8094" fill="#000000" font-size="13" lengthAdjust="spacing" textLength="170.0283" font-family="sans-serif">- group_id starts from 100</text><text x="351.4" y="108.9422" fill="#000000" font-size="13" lengthAdjust="spacing" textLength="183.1553" font-family="sans-serif">- group name format: XX-00</text></g><g class="entity" data-qualified-name="GMN11" id="ent0012" data-source-line="46"><path d="M300.01,197.6569 L300.01,229.3569 L265.38,233.3569 L300.01,237.3569 L300.01,268.1881 A0,0 0 0 0 300.01,268.1881 L510.9636,268.1881 A0,0 0 0 0 510.9636,268.1881 L510.9636,207.6569 L500.9636,197.6569 L300.01,197.6569 A0,0 0 0 0 300.01,197.6569" style="stroke:#181818;stroke-width:0.5;" fill="#FEFFDD"/><path d="M500.9636,197.6569 L500.9636,207.6569 L510.9636,207.6569 L500.9636,197.6569" style="stroke:#181818;stroke-width:0.5;" fill="#FEFFDD"/><text x="306.01" y="214.7238" fill="#000000" font-size="13" lengthAdjust="spacing" textLength="70.2939" font-family="sans-serif">Seed data:</text><text x="306.01" y="229.8566" fill="#000000" font-size="13" lengthAdjust="spacing" textLength="165.5151" font-family="sans-serif">- 200 generated students</text><text x="306.01" y="244.9894" fill="#000000" font-size="13" lengthAdjust="spacing" textLength="189.9536" font-family="sans-serif">- student_id starts from 1000</text><text x="306.01" y="260.1222" fill="#000000" font-size="13" lengthAdjust="spacing" textLength="186.3228" font-family="sans-serif">- max 30 students per group</text></g><g class="entity" data-qualified-name="GMN14" id="ent0015" data-source-line="53"><path d="M889.4,205.2269 L889.4,229.3569 L855.23,233.3569 L889.4,237.3569 L889.4,260.6253 A0,0 0 0 0 889.4,260.6253 L1077.5719,260.6253 A0,0 0 0 0 1077.5719,260.6253 L1077.5719,215.2269 L1067.5719,205.2269 L889.4,205.2269 A0,0 0 0 0 889.4,205.2269" style="stroke:#181818;stroke-width:0.5;" fill="#FEFFDD"/><path d="M1067.5719,205.2269 L1067.5719,215.2269 L1077.5719,215.2269 L1067.5719,205.2269" style="stroke:#181818;stroke-width:0.5;" fill="#FEFFDD"/><text x="895.4" y="222.2938" fill="#000000" font-size="13" lengthAdjust="spacing" textLength="70.2939" font-family="sans-serif">Seed data:</text><text x="895.4" y="237.4266" fill="#000000" font-size="13" lengthAdjust="spacing" textLength="154.3813" font-family="sans-serif">- 10 predefined courses</text><text x="895.4" y="252.5594" fill="#000000" font-size="13" lengthAdjust="spacing" textLength="167.1719" font-family="sans-serif">- course_id starts from 10</text></g><g class="entity" data-qualified-name="GMN17" id="ent0018" data-source-line="59"><path d="M286.93,481.5569 L286.93,582.3538 A0,0 0 0 0 286.93,582.3538 L572.0369,582.3538 A0,0 0 0 0 572.0369,582.3538 L572.0369,491.5569 L562.0369,481.5569 L433.48,481.5569 L429.48,421.8069 L425.48,481.5569 L286.93,481.5569 A0,0 0 0 0 286.93,481.5569" style="stroke:#181818;stroke-width:0.5;" fill="#FEFFDD"/><path d="M562.0369,481.5569 L562.0369,491.5569 L572.0369,491.5569 L562.0369,481.5569" style="stroke:#181818;stroke-width:0.5;" fill="#FEFFDD"/><text x="292.93" y="498.6238" fill="#000000" font-size="13" lengthAdjust="spacing" textLength="240.7285" font-family="sans-serif">Join table for many-to-many relation:</text><text x="292.93" y="513.7566" fill="#000000" font-size="13" lengthAdjust="spacing" textLength="141.4385" font-family="sans-serif">students &lt;-> courses</text><text x="292.93" y="528.8894" fill="#000000" font-size="13" lengthAdjust="spacing" textLength="4.1323" font-family="sans-serif"> </text><text x="292.93" y="544.0222" fill="#000000" font-size="13" lengthAdjust="spacing" textLength="70.2939" font-family="sans-serif">Seed data:</text><text x="292.93" y="559.155" fill="#000000" font-size="13" lengthAdjust="spacing" textLength="264.1069" font-family="sans-serif">- each student gets 1..3 random courses</text><text x="292.93" y="574.2878" fill="#000000" font-size="13" lengthAdjust="spacing" textLength="182.1206" font-family="sans-serif">- duplicate links are ignored</text></g><!--link groups to students--><g class="link" data-entity-1="ent0001" data-entity-2="ent0002" id="lnk5" data-source-line="34" data-link-type="crowfoot"><path d="M158.48,127.4969 C158.48,145.4269 158.48,141.1869 158.48,160.8269" style="stroke:#181818;stroke-width:1;" fill="none" id="groups-students" codeLine="34"/><line x1="154.48" y1="123.4969" x2="162.48" y2="123.4969" style="stroke:#181818;stroke-width:1;"/><line x1="154.48" y1="126.4969" x2="162.48" y2="126.4969" style="stroke:#181818;stroke-width:1;"/><line x1="158.48" y1="127.4969" x2="158.48" y2="119.4969" style="stroke:#181818;stroke-width:1;"/><line x1="158.48" y1="170.8269" x2="164.48" y2="178.8269" style="stroke:#181818;stroke-width:1;"/><line x1="158.48" y1="170.8269" x2="152.48" y2="178.8269" style="stroke:#181818;stroke-width:1;"/><line x1="158.48" y1="170.8269" x2="158.48" y2="178.8269" style="stroke:#181818;stroke-width:1;"/><ellipse cx="158.48" cy="164.8269" rx="4" ry="4" fill="none" style="stroke:#181818;stroke-width:1;"/><text x="135.48" y="145.2338" fill="#000000" font-size="13" lengthAdjust="spacing" textLength="22.9785" font-family="sans-serif">has</text></g><!--link students to students_courses--><g class="link" data-entity-1="ent0002" data-entity-2="ent0004" id="lnk6" data-source-line="35" data-link-type="crowfoot"><path d="M273.24,283.3569 C343.85,283.3569 415.47,283.3569 415.47,283.3569 C415.47,283.3569 415.47,299.7169 415.47,328.3069" style="stroke:#181818;stroke-width:1;" fill="none" id="students-students_courses" codeLine="35"/><line x1="269.24" y1="287.3569" x2="269.24" y2="279.3569" style="stroke:#181818;stroke-width:1;"/><line x1="272.24" y1="287.3569" x2="272.24" y2="279.3569" style="stroke:#181818;stroke-width:1;"/><line x1="273.24" y1="283.3569" x2="265.24" y2="283.3569" style="stroke:#181818;stroke-width:1;"/><line x1="415.47" y1="338.3069" x2="421.47" y2="346.3069" style="stroke:#181818;stroke-width:1;"/><line x1="415.47" y1="338.3069" x2="409.47" y2="346.3069" style="stroke:#181818;stroke-width:1;"/><line x1="415.47" y1="338.3069" x2="415.47" y2="346.3069" style="stroke:#181818;stroke-width:1;"/><ellipse cx="415.47" cy="332.3069" rx="4" ry="4" fill="none" style="stroke:#181818;stroke-width:1;"/><text x="327.83" y="296.4238" fill="#000000" font-size="13" lengthAdjust="spacing" textLength="43.5322" font-family="sans-serif">enrolls</text></g><!--link courses to students_courses--><g class="link" data-entity-1="ent0003" data-entity-2="ent0004" id="lnk7" data-source-line="36" data-link-type="crowfoot"><path d="M537.79,273.3569 C525.07,273.3569 524.97,273.3569 524.97,273.3569 C524.97,273.3569 524.97,296.2269 524.97,328.3069" style="stroke:#181818;stroke-width:1;" fill="none" id="courses-students_courses" codeLine="36"/><line x1="541.79" y1="269.3569" x2="541.79" y2="277.3569" style="stroke:#181818;stroke-width:1;"/><line x1="538.79" y1="269.3569" x2="538.79" y2="277.3569" style="stroke:#181818;stroke-width:1;"/><line x1="537.79" y1="273.3569" x2="545.79" y2="273.3569" style="stroke:#181818;stroke-width:1;"/><line x1="524.97" y1="338.3069" x2="530.97" y2="346.3069" style="stroke:#181818;stroke-width:1;"/><line x1="524.97" y1="338.3069" x2="518.97" y2="346.3069" style="stroke:#181818;stroke-width:1;"/><line x1="524.97" y1="338.3069" x2="524.97" y2="346.3069" style="stroke:#181818;stroke-width:1;"/><ellipse cx="524.97" cy="332.3069" rx="4" ry="4" fill="none" style="stroke:#181818;stroke-width:1;"/><text x="468.97" y="295.4838" fill="#000000" font-size="13" lengthAdjust="spacing" textLength="55.0278" font-family="sans-serif">contains</text></g><?plantuml-src ZPHFRnCn4CNl-ob6EK65gsshNbPHf0050b85JOfogvprRDQgrrxP4q5e-zsPxF-4jEMqjkUdVSzlR9CcWp1FS-SCJClIw5IITXO4V9GaLp9KLIna58LxRKlfPG56MwHjYU0yvMvG2BbKxfUsQyYa2JYef4Q6C2NoUhKXdANEplKVX3ZAjK98jKyDHX5QqhI5qTgxJHb680FKGtY804xgoPrMaC3xsUVPzGB6u-_V9XCk2Z4Wh2oGcP_JcmzVfZTlpYyltp9vUptxSNl5z5El56YZU5nhjPD6hPd-Xzu-yQacJY3JFj0nCrML4pbU7DXBtSO7hDqruyPSFNlHMuEy4WQqdCAGUbrMxKzWSRLS70lgRcZfSF6LuDv15yqpzXk2TPk-FpuAuHxwpYGmocKOHTt20T0vOH2jTyOmtAwzmFA19Aajmv5rXE3rEYTmMNF-eZcY0iLN8ea4dCMmHejU4YysWEYFGY3fsLdcNS5et9QWQaJcV24fWULIS0cjWftUeMfhSL_tF1uATumO1duWlbClv6-uYFiCI_IresVbcs3-sNNfKM76jrzrY1YqSb_xyEyhHyI5mUxQ1aHVdRR0pusfyc73TYl8YTqNF9hgIKhwde_5fDFVzuWopTlVSrJCdfsUNe2NLh5qxrbjwgSETs_PVG3f4VJQEjvVP_il?></g></svg>